HIERARCHY
ROOT Hips
{
	OFFSET 0.000000 100.481300 0.000000
	CHANNELS 6 Xposition Yposition Zposition Xrotation Yrotation Zrotation
	JOINT Spine
	{
		OFFSET -0.279200 12.230698 -2.892100
		CHANNELS 3 Xrotation Yrotation Zrotation
		JOINT Spine1
		{
			OFFSET -0.325700 14.269203 -3.374200
			CHANNELS 3 Xrotation Yrotation Zrotation
			JOINT Spine2
			{
				OFFSET -0.372300 16.307602 -0.352600
				CHANNELS 3 Xrotation Yrotation Zrotation
				JOINT Neck
				{
					OFFSET -0.418800 17.814194 8.416900
					CHANNELS 3 Xrotation Yrotation Zrotation
					JOINT Head
					{
						OFFSET 0.000000 7.031097 3.806800
						CHANNELS 3 Xrotation Yrotation Zrotation
						JOINT HeadTop_End
						{
							OFFSET 0.000000 24.646606 12.978600
							CHANNELS 3 Xrotation Yrotation Zrotation
							End Site
							{
								OFFSET 0.000000 27.854965 0.000000
							}
						}
					}
				}
				JOINT LeftShoulder
				{
					OFFSET 16.952999 14.495407 -7.737500
					CHANNELS 3 Xrotation Yrotation Zrotation
					JOINT LeftArm
					{
						OFFSET 9.308998 -2.777710 0.208600
						CHANNELS 3 Xrotation Yrotation Zrotation
						JOINT LeftForeArm
						{
							OFFSET 29.972298 0.000000 0.000000
							CHANNELS 3 Xrotation Yrotation Zrotation
							JOINT LeftHand
							{
								OFFSET 26.026505 0.000000 0.000000
								CHANNELS 3 Xrotation Yrotation Zrotation
								JOINT LeftHandThumb1
								{
									OFFSET 12.240501 -7.147949 9.207150
									CHANNELS 3 Xrotation Yrotation Zrotation
									JOINT LeftHandThumb2
									{
										OFFSET 4.138618 -2.389435 2.389433
										CHANNELS 3 Xrotation Yrotation Zrotation
										JOINT LeftHandThumb3
										{
											OFFSET 2.726913 -1.574387 1.574386
											CHANNELS 3 Xrotation Yrotation Zrotation
											JOINT LeftHandThumb4
											{
												OFFSET 3.941010 -2.275345 2.275342
												CHANNELS 3 Xrotation Yrotation Zrotation
												End Site
												{
													OFFSET -0.005798 5.087799 0.009903
												}
											}
										}
									}
								}
								JOINT LeftHandIndex1
								{
									OFFSET 24.424698 -1.985611 5.953459
									CHANNELS 3 Xrotation Yrotation Zrotation
									JOINT LeftHandIndex2
									{
										OFFSET 6.426697 0.000000 0.000000
										CHANNELS 3 Xrotation Yrotation Zrotation
										JOINT LeftHandIndex3
										{
											OFFSET 5.337898 0.000000 0.000000
											CHANNELS 3 Xrotation Yrotation Zrotation
											JOINT LeftHandIndex4
											{
												OFFSET 4.409401 0.000000 0.000000
												CHANNELS 3 Xrotation Yrotation Zrotation
												End Site
												{
													OFFSET 0.000000 4.409363 0.014373
												}
											}
										}
									}
								}
								JOINT LeftHandMiddle1
								{
									OFFSET 23.810104 0.000000 0.000000
									CHANNELS 3 Xrotation Yrotation Zrotation
									JOINT LeftHandMiddle2
									{
										OFFSET 7.176498 0.000000 0.000000
										CHANNELS 3 Xrotation Yrotation Zrotation
										JOINT LeftHandMiddle3
										{
											OFFSET 6.774902 0.000000 0.000000
											CHANNELS 3 Xrotation Yrotation Zrotation
											JOINT LeftHandMiddle4
											{
												OFFSET 5.403328 0.000000 0.000000
												CHANNELS 3 Xrotation Yrotation Zrotation
												End Site
												{
													OFFSET -0.027702 5.403244 0.017414
												}
											}
										}
									}
								}
								JOINT LeftHandRing1
								{
									OFFSET 22.908401 -0.839279 -6.020567
									CHANNELS 3 Xrotation Yrotation Zrotation
									JOINT LeftHandRing2
									{
										OFFSET 6.337502 0.000000 0.000000
										CHANNELS 3 Xrotation Yrotation Zrotation
										JOINT LeftHandRing3
										{
											OFFSET 5.779297 0.000000 0.000000
											CHANNELS 3 Xrotation Yrotation Zrotation
											JOINT LeftHandRing4
											{
												OFFSET 4.965698 0.000000 0.000000
												CHANNELS 3 Xrotation Yrotation Zrotation
												End Site
												{
													OFFSET 0.000000 4.965668 0.016186
												}
											}
										}
									}
								}
								JOINT LeftHandPinky1
								{
									OFFSET 20.037003 -1.530319 -10.950146
									CHANNELS 3 Xrotation Yrotation Zrotation
									JOINT LeftHandPinky2
									{
										OFFSET 5.254700 0.000000 0.000000
										CHANNELS 3 Xrotation Yrotation Zrotation
										JOINT LeftHandPinky3
										{
											OFFSET 4.810204 0.000000 0.000000
											CHANNELS 3 Xrotation Yrotation Zrotation
											JOINT LeftHandPinky4
											{
												OFFSET 3.647202 0.000000 0.000000
												CHANNELS 3 Xrotation Yrotation Zrotation
												End Site
												{
													OFFSET 0.000000 3.647186 0.011889
												}
											}
										}
									}
								}
							}
						}
					}
				}
				JOINT RightShoulder
				{
					OFFSET -15.141001 14.495407 -7.737500
					CHANNELS 3 Xrotation Yrotation Zrotation
					JOINT RightArm
					{
						OFFSET -9.308998 -2.777710 0.208500
						CHANNELS 3 Xrotation Yrotation Zrotation
						JOINT RightForeArm
						{
							OFFSET -29.972300 0.000000 0.000000
							CHANNELS 3 Xrotation Yrotation Zrotation
							JOINT RightHand
							{
								OFFSET -26.026505 0.000000 0.000000
								CHANNELS 3 Xrotation Yrotation Zrotation
								JOINT RightHandThumb1
								{
									OFFSET -12.240601 -7.148026 9.207092
									CHANNELS 3 Xrotation Yrotation Zrotation
									JOINT RightHandThumb2
									{
										OFFSET -4.138618 -2.389435 2.389433
										CHANNELS 3 Xrotation Yrotation Zrotation
										JOINT RightHandThumb3
										{
											OFFSET -2.726974 -1.574417 1.574421
											CHANNELS 3 Xrotation Yrotation Zrotation
											JOINT RightHandThumb4
											{
												OFFSET -3.941010 -2.275345 2.275343
												CHANNELS 3 Xrotation Yrotation Zrotation
												End Site
												{
													OFFSET 0.005814 5.087799 0.009927
												}
											}
										}
									}
								}
								JOINT RightHandIndex1
								{
									OFFSET -24.424698 -1.985657 5.953444
									CHANNELS 3 Xrotation Yrotation Zrotation
									JOINT RightHandIndex2
									{
										OFFSET -6.426697 0.000000 0.000000
										CHANNELS 3 Xrotation Yrotation Zrotation
										JOINT RightHandIndex3
										{
											OFFSET -5.337898 0.000000 0.000000
											CHANNELS 3 Xrotation Yrotation Zrotation
											JOINT RightHandIndex4
											{
												OFFSET -4.409401 0.000000 0.000000
												CHANNELS 3 Xrotation Yrotation Zrotation
												End Site
												{
													OFFSET 0.000000 4.409363 0.014408
												}
											}
										}
									}
								}
								JOINT RightHandMiddle1
								{
									OFFSET -23.810097 0.000000 0.000000
									CHANNELS 3 Xrotation Yrotation Zrotation
									JOINT RightHandMiddle2
									{
										OFFSET -7.176498 0.000000 0.000000
										CHANNELS 3 Xrotation Yrotation Zrotation
										JOINT RightHandMiddle3
										{
											OFFSET -6.774902 0.000000 0.000000
											CHANNELS 3 Xrotation Yrotation Zrotation
											JOINT RightHandMiddle4
											{
												OFFSET -5.403328 0.000000 0.000000
												CHANNELS 3 Xrotation Yrotation Zrotation
												End Site
												{
													OFFSET 0.027702 5.403244 0.017457
												}
											}
										}
									}
								}
								JOINT RightHandRing1
								{
									OFFSET -22.908302 -0.839325 -6.020576
									CHANNELS 3 Xrotation Yrotation Zrotation
									JOINT RightHandRing2
									{
										OFFSET -6.337502 0.000000 0.000000
										CHANNELS 3 Xrotation Yrotation Zrotation
										JOINT RightHandRing3
										{
											OFFSET -5.779297 0.000000 0.000000
											CHANNELS 3 Xrotation Yrotation Zrotation
											JOINT RightHandRing4
											{
												OFFSET -4.965698 0.000000 0.000000
												CHANNELS 3 Xrotation Yrotation Zrotation
												End Site
												{
													OFFSET 0.000000 4.965668 0.016226
												}
											}
										}
									}
								}
								JOINT RightHandPinky1
								{
									OFFSET -20.037003 -1.530334 -10.950259
									CHANNELS 3 Xrotation Yrotation Zrotation
									JOINT RightHandPinky2
									{
										OFFSET -5.254700 0.000000 0.000000
										CHANNELS 3 Xrotation Yrotation Zrotation
										JOINT RightHandPinky3
										{
											OFFSET -4.810204 0.000000 0.000000
											CHANNELS 3 Xrotation Yrotation Zrotation
											JOINT RightHandPinky4
											{
												OFFSET -3.647202 0.000000 0.000000
												CHANNELS 3 Xrotation Yrotation Zrotation
												End Site
												{
													OFFSET 0.000000 3.647186 0.011917
												}
											}
										}
									}
								}
							}
						}
					}
				}
			}
		}
	}
	JOINT LeftUpLeg
	{
		OFFSET 15.427100 -6.655098 0.678600
		CHANNELS 3 Xrotation Yrotation Zrotation
		JOINT LeftLeg
		{
			OFFSET 4.081073 -39.591068 13.024000
			CHANNELS 3 Xrotation Yrotation Zrotation
			JOINT LeftFoot
			{
				OFFSET -4.081074 -37.707932 -15.979700
				CHANNELS 3 Xrotation Yrotation Zrotation
				JOINT LeftToeBase
				{
					OFFSET 5.346399 -15.068900 20.645000
					CHANNELS 3 Xrotation Yrotation Zrotation
					JOINT LeftToe_End
					{
						OFFSET 2.754700 0.931300 11.300900
						CHANNELS 3 Xrotation Yrotation Zrotation
						End Site
						{
							OFFSET 0.000000 11.669021 0.000000
						}
					}
				}
			}
		}
	}
	JOINT RightUpLeg
	{
		OFFSET -15.569500 -6.655098 0.678600
		CHANNELS 3 Xrotation Yrotation Zrotation
		JOINT RightLeg
		{
			OFFSET -4.081825 -39.591045 13.023800
			CHANNELS 3 Xrotation Yrotation Zrotation
			JOINT RightFoot
			{
				OFFSET 4.081824 -37.707954 -15.979600
				CHANNELS 3 Xrotation Yrotation Zrotation
				JOINT RightToeBase
				{
					OFFSET -5.346400 -15.068900 20.645000
					CHANNELS 3 Xrotation Yrotation Zrotation
					JOINT RightToe_End
					{
						OFFSET -2.754700 0.931300 11.300900
						CHANNELS 3 Xrotation Yrotation Zrotation
						End Site
						{
							OFFSET 0.000000 11.669021 0.000000
						}
					}
				}
			}
		}
	}
}
MOTION
Frames: 4
Frame Time: 0.033333
-13.894268 74.227623 39.056591 123.872734 29.660909 -142.311650 86.619332 2.182804 -1.556007 12.198261 0.841796 0.279576 16.133042 0.908378 -0.156216 0.033381 0.580666 2.669100 0.286763 -6.825650 -0.277739 -0.000000 0.000001 0.000000 -41.425292 -46.228015 22.437224 -92.495337 22.045332 -41.487146 0.000010 -45.513000 0.000024 -36.160613 17.363995 92.267748 -24.416359 -12.591789 12.255988 4.144131 9.482733 1.784349 -7.692723 -2.715818 12.526815 -0.000001 -0.000000 -0.000003 -2.334838 -15.126253 -8.712656 0.000104 0.034699 -0.338543 0.001954 -0.151415 1.477669 -0.000000 -0.000000 -0.000000 -0.599118 -4.601924 -5.633582 0.000000 0.000116 -0.001113 0.002589 -0.174362 1.701721 -0.000000 0.000001 -0.000000 0.506242 7.772699 -4.644979 0.000000 0.000001 -0.000007 0.005628 -0.257026 2.508951 0.000000 -0.000001 -0.000000 1.593523 21.093489 -3.859787 0.000058 0.026005 -0.253785 0.005647 -0.257447 2.513097 -0.000000 0.000000 0.000000 12.680074 17.011809 -31.696463 -128.927675 1.636448 37.289203 0.000000 63.742727 -0.000001 -29.197809 -23.180795 -78.503742 -4.957092 22.491801 -22.374878 6.358362 -14.447605 -2.112224 -7.845700 8.561198 -11.387872 -0.000002 0.000003 0.000000 6.929597 22.348668 -15.505586 -0.000001 -0.000002 0.000007 0.000001 0.000005 -0.000038 0.000000 0.000000 -0.000000 3.558510 9.846340 -16.725491 0.000000 -0.000005 0.000005 0.000000 -0.000013 -0.000047 0.000000 -0.000001 -0.000000 0.305683 -0.748093 -17.692712 -0.000001 -0.000005 0.000010 0.000001 -0.000001 -0.000031 0.000000 -0.000000 -0.000000 -3.749119 -13.123701 -18.830951 -0.000000 0.000000 0.000004 0.000001 0.000010 -0.000047 -0.000000 -0.000001 0.000000 -64.774884 -7.836263 28.117006 49.816951 -3.104846 -0.025410 -21.818495 6.576967 -15.723697 -10.590878 -0.000014 -0.000003 -0.000000 -0.000001 0.000001 -59.813681 12.227503 -31.153210 54.635561 -4.313902 -3.839967 -14.540943 -8.179674 16.073322 -5.784522 -0.266579 5.565665 0.000000 0.000002 -0.000000 
-14.264908 72.936844 38.972580 127.384749 34.009947 -144.332689 88.598174 3.522112 -2.603640 12.720451 1.379807 0.302496 16.772182 1.457693 -0.287084 0.130507 0.318644 2.639691 0.864924 -8.136847 -0.996630 0.000002 0.000001 0.000000 -36.113358 -48.444278 24.312362 -90.928526 15.027828 -37.223346 0.000014 -42.442932 0.000002 -44.838805 16.997839 92.286470 -24.634303 -12.636171 12.559125 4.144133 9.482739 1.784341 -7.692729 -2.715824 12.526826 -0.000002 0.000001 -0.000001 -2.246896 -15.082943 -8.449503 0.000054 0.025260 -0.246375 0.001952 -0.151416 1.477689 -0.000001 -0.000001 -0.000000 -0.560796 -4.542365 -5.376886 -0.000000 -0.000005 -0.000002 0.002591 -0.174363 1.701743 0.000000 0.000001 0.000001 0.489105 7.835374 -4.384022 0.000001 0.002611 -0.025468 0.005627 -0.257029 2.508985 0.000000 0.000000 0.000000 1.217591 21.186371 -3.574092 0.000055 0.026005 -0.253785 0.005647 -0.257450 2.513097 0.000000 0.000000 0.000000 12.716678 17.274568 -32.091538 -129.305030 1.734191 36.183863 -0.000078 62.820330 0.000083 -27.403129 -25.151442 -77.967709 -4.957097 22.491792 -22.374877 6.358369 -14.447590 -2.112221 -7.845698 8.561200 -11.387873 0.000000 0.000002 -0.000001 6.929589 22.348649 -15.505586 0.000001 -0.000008 0.000008 0.000001 0.000014 -0.000039 -0.000000 -0.000002 -0.000000 3.558508 9.846328 -16.725491 0.000001 0.000011 0.000005 0.000001 0.000006 -0.000047 -0.000000 0.000003 0.000001 0.305679 -0.748101 -17.692715 -0.000000 -0.000004 0.000011 0.000000 -0.000001 -0.000030 0.000001 0.000001 0.000000 -3.749118 -13.123718 -18.830951 -0.000001 -0.000002 0.000003 0.000000 0.000022 -0.000046 0.000000 0.000000 0.000000 -63.002969 -9.695772 29.015446 49.383661 -8.554956 2.735568 -22.675680 6.876739 -17.838489 -10.012093 -0.000029 0.000009 0.000001 -0.000001 0.000001 -59.845817 11.754127 -32.519613 49.934683 -0.076496 -3.820595 -11.191701 -10.061484 21.766517 -7.259356 -0.001631 0.440435 0.000000 -0.000000 -0.000001 
-15.631302 69.429550 40.061501 131.891431 37.692269 -146.688230 88.932055 4.291407 -3.054001 12.819663 1.547461 0.369178 16.912628 1.613148 -0.252001 0.382566 0.248462 2.464798 1.512839 -8.712899 -0.854226 0.000001 -0.000000 0.000000 -30.466557 -48.730422 25.798113 -87.527324 10.171393 -35.178206 -0.000000 -39.027462 -0.000002 -52.384303 15.305020 92.372332 -24.427497 -12.610262 12.281800 4.144141 9.482732 1.784340 -7.692736 -2.715819 12.526815 0.000001 0.000001 0.000000 -2.334834 -15.126255 -8.712648 0.000104 0.034694 -0.338550 0.001953 -0.151416 1.477669 0.000000 0.000002 -0.000000 -0.598676 -4.602334 -5.629946 0.000000 0.000001 -0.000039 0.002588 -0.174356 1.701721 0.000000 -0.000001 -0.000001 0.505327 7.771785 -4.635283 0.000001 0.000001 -0.000007 0.005627 -0.257025 2.508950 0.000000 0.000000 0.000000 1.592741 21.093310 -3.857358 0.000059 0.026009 -0.253787 0.005647 -0.257450 2.513097 0.000000 0.000000 0.000000 12.698228 17.371560 -29.541453 -126.971113 2.852147 38.565133 -0.000024 60.587555 0.000022 -26.277652 -25.160354 -77.968911 -4.957100 22.491813 -22.374872 6.358364 -14.447597 -2.112221 -7.845696 8.561202 -11.387870 0.000000 0.000001 -0.000002 6.929597 22.348673 -15.505588 -0.000001 -0.000005 0.000006 -0.000001 0.000002 -0.000037 -0.000001 0.000001 -0.000000 3.558506 9.846344 -16.725489 0.000002 0.000001 0.000006 -0.000001 -0.000000 -0.000048 -0.000001 0.000003 0.000000 0.305684 -0.748084 -17.692712 -0.000000 0.000002 0.000011 0.000001 -0.000000 -0.000031 0.000001 0.000001 0.000000 -3.749118 -13.123695 -18.830951 0.000001 -0.000005 0.000008 0.000000 0.000008 -0.000047 0.000000 0.000001 0.000001 -61.214853 -11.647362 30.067193 54.138969 -10.038770 4.103567 -25.286639 7.562147 -20.301452 -9.450435 0.000012 0.000006 0.000000 -0.000001 0.000001 -58.518943 12.409635 -34.546086 51.047666 0.796649 -3.824661 -10.903052 -11.627204 27.983162 -7.859738 -0.000001 0.000002 0.000000 -0.000001 -0.000001 
-17.208923 65.449768 41.819611 136.562461 40.578844 -149.250753 88.547447 4.794044 -3.154582 12.754064 1.577540 0.447584 16.821110 1.627410 -0.158340 0.524003 0.227435 2.141674 1.776318 -9.132465 -0.515137 -0.000002 0.000002 0.000001 -25.426872 -46.116013 23.686790 -88.818749 6.556314 -37.725631 -0.000004 -37.795928 -0.000001 -54.084979 12.141258 91.871242 -12.003090 -10.578948 18.040285 4.154991 9.566126 1.793314 -7.679123 -2.639059 12.547552 0.000001 -0.000001 0.000003 -2.346138 -15.011110 -8.801514 0.000185 0.046740 -0.456135 0.001630 -0.138395 1.350691 0.000001 0.000000 -0.000000 -0.614307 -4.544146 -5.787791 0.000026 0.017734 -0.173037 0.002065 -0.155746 1.519979 -0.000000 0.000001 0.000001 0.521380 7.762588 -4.832259 0.000038 0.021345 -0.208301 0.004681 -0.234374 2.287706 0.000000 0.000000 -0.000000 1.645386 21.002558 -4.072829 0.000190 0.047213 -0.460735 0.004695 -0.234795 2.291829 0.000000 -0.000000 -0.000000 12.777715 17.205914 -26.322540 -124.430064 4.948574 41.713997 0.000003 57.270907 -0.000001 -25.857920 -24.415160 -78.266140 -4.957107 22.491811 -22.374861 6.358370 -14.447590 -2.112218 -7.845700 8.561193 -11.387883 -0.000002 -0.000001 -0.000002 6.929595 22.348666 -15.505585 -0.000000 0.000002 0.000008 0.000001 0.000004 -0.000038 0.000000 -0.000001 0.000000 3.558506 9.846342 -16.725489 0.000000 -0.000005 0.000005 -0.000001 0.000004 -0.000046 0.000001 0.000001 0.000001 0.305334 -0.749178 -17.692804 -0.000000 -0.000006 0.000011 0.000000 -0.000003 -0.000031 -0.000000 0.000001 -0.000000 -3.749116 -13.123695 -18.830951 -0.000000 -0.000001 0.000003 -0.000001 0.000012 -0.000048 0.000000 -0.000001 -0.000000 -59.369794 -13.505237 31.200509 59.662105 -10.391746 4.749679 -27.912813 8.848294 -22.673462 -8.570424 -0.000001 0.000004 0.000000 -0.000001 -0.000000 -55.093768 14.538592 -36.813179 52.824707 0.629096 -3.663579 -11.897744 -13.303396 36.003139 -5.412793 -0.000031 0.000000 -0.000000 -0.000003 -0.000000 
